<svg width="77" height="77" viewBox="0 0 77 77" fill="none" xmlns="http://www.w3.org/2000/svg">
<path d="M49.2772 22.7905H67.69C72.3037 22.7905 76.0716 26.5575 76.0716 31.1712V48.2026C76.0716 52.8162 72.3037 56.5841 67.69 56.5841H64.4869L59.2376 69.352C58.5973 70.9099 56.4019 70.878 55.7744 69.352L50.525 56.5841H36.1046C31.491 56.5841 27.724 52.8162 27.724 48.2026V40.2858H26.4753L21.2259 53.0545C20.5984 54.5797 18.403 54.6124 17.7636 53.0545L12.5143 40.2858H9.31026C4.69659 40.2858 0.928711 36.5188 0.928711 31.9051V14.8728C0.928711 10.2601 4.69659 6.49219 9.31026 6.49219H40.8957C45.5093 6.49219 49.2772 10.2592 49.2772 14.8728V22.7905ZM9.23386 21.9875C6.76378 21.9875 6.76378 18.2314 9.23386 18.2314H40.9721C43.4421 18.2314 43.4421 21.9875 40.9721 21.9875H9.23386ZM31.4801 40.2858V48.2026C31.4801 50.7427 33.5654 52.8281 36.1046 52.8281L51.7773 52.8335C52.513 52.8344 53.2115 53.271 53.5089 53.994L57.506 63.7179L61.4439 54.1395C61.684 53.3792 62.3952 52.8281 63.2346 52.8281H67.69C70.2302 52.8281 72.3146 50.7427 72.3146 48.2026V31.1712C72.3146 28.632 70.2292 26.5466 67.69 26.5466H49.2772V31.9051C49.2772 36.5188 45.5093 40.2858 40.8957 40.2858H31.4801ZM40.8957 10.2482H9.31026C6.77106 10.2482 4.68567 12.3336 4.68567 14.8728V31.9051C4.68567 34.4443 6.77106 36.5297 9.31026 36.5297H13.7657C14.6051 36.5297 15.3163 37.0808 15.5573 37.8411L19.4943 47.4195L23.4923 37.6956C23.7888 36.9726 24.4873 36.5361 25.223 36.5352L40.8957 36.5297C43.4358 36.5297 45.5202 34.4443 45.5202 31.9051V14.8728C45.5202 12.3336 43.4358 10.2482 40.8957 10.2482Z" fill="white"/>
</svg>
