<svg width="204" height="204" viewBox="0 0 204 204" fill="none" xmlns="http://www.w3.org/2000/svg">
<circle cx="4" cy="4" r="4" fill="#FB7C84"/>
<circle cx="4" cy="116" r="4" fill="#FB7C84"/>
<circle cx="116" cy="4" r="4" fill="#FB7C84"/>
<circle cx="116" cy="116" r="4" fill="#FB7C84"/>
<circle cx="4" cy="60" r="4" fill="#FB7C84"/>
<circle cx="4" cy="172" r="4" fill="#FB7C84"/>
<circle cx="116" cy="60" r="4" fill="#FB7C84"/>
<circle cx="116" cy="172" r="4" fill="#FB7C84"/>
<circle cx="60" cy="4" r="4" fill="#FB7C84"/>
<circle cx="60" cy="116" r="4" fill="#FB7C84"/>
<circle cx="172" cy="4" r="4" fill="#FB7C84"/>
<circle cx="172" cy="116" r="4" fill="#FB7C84"/>
<circle cx="60" cy="60" r="4" fill="#FB7C84"/>
<circle cx="60" cy="172" r="4" fill="#FB7C84"/>
<circle cx="172" cy="60" r="4" fill="#FB7C84"/>
<circle cx="172" cy="172" r="4" fill="#FB7C84"/>
<circle cx="4" cy="32" r="4" fill="#FB7C84"/>
<circle cx="4" cy="144" r="4" fill="#FB7C84"/>
<circle cx="116" cy="32" r="4" fill="#FB7C84"/>
<circle cx="116" cy="144" r="4" fill="#FB7C84"/>
<circle cx="4" cy="88" r="4" fill="#FB7C84"/>
<circle cx="4" cy="200" r="4" fill="#FB7C84"/>
<circle cx="116" cy="88" r="4" fill="#FB7C84"/>
<circle cx="116" cy="200" r="4" fill="#FB7C84"/>
<circle cx="60" cy="32" r="4" fill="#FB7C84"/>
<circle cx="60" cy="144" r="4" fill="#FB7C84"/>
<circle cx="172" cy="32" r="4" fill="#FB7C84"/>
<circle cx="172" cy="144" r="4" fill="#FB7C84"/>
<circle cx="60" cy="88" r="4" fill="#FB7C84"/>
<circle cx="60" cy="200" r="4" fill="#FB7C84"/>
<circle cx="172" cy="88" r="4" fill="#FB7C84"/>
<circle cx="172" cy="200" r="4" fill="#FB7C84"/>
<circle cx="32" cy="4" r="4" fill="#FB7C84"/>
<circle cx="32" cy="116" r="4" fill="#FB7C84"/>
<circle cx="144" cy="4" r="4" fill="#FB7C84"/>
<circle cx="144" cy="116" r="4" fill="#FB7C84"/>
<circle cx="32" cy="60" r="4" fill="#FB7C84"/>
<circle cx="32" cy="172" r="4" fill="#FB7C84"/>
<circle cx="144" cy="60" r="4" fill="#FB7C84"/>
<circle cx="144" cy="172" r="4" fill="#FB7C84"/>
<circle cx="88" cy="4" r="4" fill="#FB7C84"/>
<circle cx="88" cy="116" r="4" fill="#FB7C84"/>
<circle cx="200" cy="4" r="4" fill="#FB7C84"/>
<circle cx="200" cy="116" r="4" fill="#FB7C84"/>
<circle cx="88" cy="60" r="4" fill="#FB7C84"/>
<circle cx="88" cy="172" r="4" fill="#FB7C84"/>
<circle cx="200" cy="60" r="4" fill="#FB7C84"/>
<circle cx="200" cy="172" r="4" fill="#FB7C84"/>
<circle cx="32" cy="32" r="4" fill="#FB7C84"/>
<circle cx="32" cy="144" r="4" fill="#FB7C84"/>
<circle cx="144" cy="32" r="4" fill="#FB7C84"/>
<circle cx="144" cy="144" r="4" fill="#FB7C84"/>
<circle cx="32" cy="88" r="4" fill="#FB7C84"/>
<circle cx="32" cy="200" r="4" fill="#FB7C84"/>
<circle cx="144" cy="88" r="4" fill="#FB7C84"/>
<circle cx="144" cy="200" r="4" fill="#FB7C84"/>
<circle cx="88" cy="32" r="4" fill="#FB7C84"/>
<circle cx="88" cy="144" r="4" fill="#FB7C84"/>
<circle cx="200" cy="32" r="4" fill="#FB7C84"/>
<circle cx="200" cy="144" r="4" fill="#FB7C84"/>
<circle cx="88" cy="88" r="4" fill="#FB7C84"/>
<circle cx="88" cy="200" r="4" fill="#FB7C84"/>
<circle cx="200" cy="88" r="4" fill="#FB7C84"/>
<circle cx="200" cy="200" r="4" fill="#FB7C84"/>
</svg>
