<svg width="168" height="288" viewBox="0 0 168 288" fill="none" xmlns="http://www.w3.org/2000/svg">
<circle cx="4" cy="4" r="4" fill="#5AC4FF"/>
<circle cx="4" cy="164" r="4" fill="#5AC4FF"/>
<circle cx="4" cy="84" r="4" fill="#5AC4FF"/>
<circle cx="4" cy="244" r="4" fill="#5AC4FF"/>
<circle cx="124" cy="4" r="4" fill="#5AC4FF"/>
<circle cx="124" cy="164" r="4" fill="#5AC4FF"/>
<circle cx="124" cy="84" r="4" fill="#5AC4FF"/>
<circle cx="124" cy="244" r="4" fill="#5AC4FF"/>
<circle cx="4" cy="44" r="4" fill="#5AC4FF"/>
<circle cx="4" cy="204" r="4" fill="#5AC4FF"/>
<circle cx="4" cy="124" r="4" fill="#5AC4FF"/>
<circle cx="4" cy="284" r="4" fill="#5AC4FF"/>
<circle cx="124" cy="44" r="4" fill="#5AC4FF"/>
<circle cx="124" cy="204" r="4" fill="#5AC4FF"/>
<circle cx="124" cy="124" r="4" fill="#5AC4FF"/>
<circle cx="124" cy="284" r="4" fill="#5AC4FF"/>
<circle cx="44" cy="4" r="4" fill="#5AC4FF"/>
<circle cx="44" cy="164" r="4" fill="#5AC4FF"/>
<circle cx="44" cy="84" r="4" fill="#5AC4FF"/>
<circle cx="44" cy="244" r="4" fill="#5AC4FF"/>
<circle cx="164" cy="4" r="4" fill="#5AC4FF"/>
<circle cx="164" cy="164" r="4" fill="#5AC4FF"/>
<circle cx="164" cy="84" r="4" fill="#5AC4FF"/>
<circle cx="164" cy="244" r="4" fill="#5AC4FF"/>
<circle cx="44" cy="44" r="4" fill="#5AC4FF"/>
<circle cx="44" cy="204" r="4" fill="#5AC4FF"/>
<circle cx="44" cy="124" r="4" fill="#5AC4FF"/>
<circle cx="44" cy="284" r="4" fill="#5AC4FF"/>
<circle cx="164" cy="44" r="4" fill="#5AC4FF"/>
<circle cx="164" cy="204" r="4" fill="#5AC4FF"/>
<circle cx="164" cy="124" r="4" fill="#5AC4FF"/>
<circle cx="164" cy="284" r="4" fill="#5AC4FF"/>
<circle cx="84" cy="4" r="4" fill="#5AC4FF"/>
<circle cx="84" cy="164" r="4" fill="#5AC4FF"/>
<circle cx="84" cy="84" r="4" fill="#5AC4FF"/>
<circle cx="84" cy="244" r="4" fill="#5AC4FF"/>
<circle cx="84" cy="44" r="4" fill="#5AC4FF"/>
<circle cx="84" cy="204" r="4" fill="#5AC4FF"/>
<circle cx="84" cy="124" r="4" fill="#5AC4FF"/>
<circle cx="84" cy="284" r="4" fill="#5AC4FF"/>
</svg>
