<svg width="335" height="41" viewBox="0 0 335 41" fill="none" xmlns="http://www.w3.org/2000/svg">
<path fill-rule="evenodd" clip-rule="evenodd" d="M20 5C11.1635 5 4 12.1635 4 21C4 29.8365 11.1635 37 20 37C28.8365 37 36 29.8365 36 21C36 12.1635 28.8365 5 20 5ZM16.4822 12.5182C17.3924 12.4768 17.6833 12.4667 20.0008 12.4667H19.9981C22.3164 12.4667 22.6061 12.4768 23.5164 12.5182C24.4249 12.5598 25.0453 12.7037 25.5893 12.9147C26.1511 13.1325 26.6257 13.424 27.1004 13.8987C27.5751 14.373 27.8667 14.8491 28.0853 15.4103C28.2951 15.9529 28.4391 16.573 28.4818 17.4815C28.5227 18.3917 28.5333 18.6825 28.5333 21.0001C28.5333 23.3176 28.5227 23.6077 28.4818 24.518C28.4391 25.4261 28.2951 26.0463 28.0853 26.5891C27.8667 27.1502 27.5751 27.6263 27.1004 28.1006C26.6263 28.5753 26.1509 28.8675 25.5899 29.0855C25.0469 29.2965 24.4261 29.4403 23.5177 29.4819C22.6074 29.5234 22.3175 29.5335 19.9997 29.5335C17.6824 29.5335 17.3917 29.5234 16.4815 29.4819C15.5732 29.4403 14.9529 29.2965 14.41 29.0855C13.8491 28.8675 13.373 28.5753 12.8989 28.1006C12.4243 27.6263 12.1328 27.1502 11.9147 26.5889C11.7038 26.0463 11.56 25.4263 11.5182 24.5178C11.477 23.6076 11.4667 23.3176 11.4667 21.0001C11.4667 18.6825 11.4773 18.3915 11.5181 17.4813C11.5589 16.5732 11.7029 15.9529 11.9145 15.4101C12.1331 14.8491 12.4247 14.373 12.8994 13.8987C13.3737 13.4242 13.8498 13.1326 14.4111 12.9147C14.9537 12.7037 15.5737 12.5598 16.4822 12.5182Z" fill="white"/>
<path fill-rule="evenodd" clip-rule="evenodd" d="M19.2355 14.006C19.3841 14.0058 19.544 14.0059 19.7166 14.006L20.001 14.006C22.2794 14.006 22.5495 14.0142 23.4492 14.0551C24.2812 14.0932 24.7328 14.2322 25.0336 14.349C25.4318 14.5036 25.7157 14.6886 26.0142 14.9872C26.3129 15.2859 26.4978 15.5704 26.6528 15.9686C26.7696 16.269 26.9088 16.7206 26.9467 17.5526C26.9876 18.4522 26.9964 18.7224 26.9964 20.9997C26.9964 23.2771 26.9876 23.5473 26.9467 24.4469C26.9086 25.2789 26.7696 25.7304 26.6528 26.0309C26.4982 26.4291 26.3129 26.7127 26.0142 27.0112C25.7156 27.3098 25.432 27.4948 25.0336 27.6494C24.7332 27.7668 24.2812 27.9054 23.4492 27.9434C22.5496 27.9844 22.2794 27.9932 20.001 27.9932C17.7224 27.9932 17.4524 27.9844 16.5528 27.9434C15.7208 27.905 15.2692 27.766 14.9682 27.6492C14.57 27.4946 14.2856 27.3096 13.9869 27.011C13.6882 26.7123 13.5034 26.4286 13.3483 26.0302C13.2315 25.7298 13.0923 25.2782 13.0544 24.4462C13.0136 23.5466 13.0054 23.2764 13.0054 20.9976C13.0054 18.7188 13.0136 18.45 13.0544 17.5504C13.0925 16.7184 13.2315 16.2669 13.3483 15.9661C13.503 15.5678 13.6882 15.2834 13.9869 14.9848C14.2856 14.6861 14.57 14.5012 14.9682 14.3462C15.269 14.2288 15.7208 14.0902 16.5528 14.0519C17.34 14.0164 17.6451 14.0057 19.2355 14.0039V14.006ZM24.5561 15.423C23.9908 15.423 23.532 15.8811 23.532 16.4466C23.532 17.012 23.9908 17.4706 24.5561 17.4706C25.1214 17.4706 25.5801 17.012 25.5801 16.4466C25.5801 15.8813 25.1214 15.4226 24.5561 15.4226V15.423ZM15.6188 21.0017C15.6188 18.5816 17.5808 16.6195 20.0008 16.6194C22.421 16.6194 24.3826 18.5816 24.3826 21.0017C24.3826 23.4218 22.4211 25.3831 20.001 25.3831C17.5809 25.3831 15.6188 23.4218 15.6188 21.0017Z" fill="white"/>
<path d="M20.0007 18.1562C21.5716 18.1562 22.8452 19.4297 22.8452 21.0007C22.8452 22.5716 21.5716 23.8452 20.0007 23.8452C18.4297 23.8452 17.1562 22.5716 17.1562 21.0007C17.1562 19.4297 18.4297 18.1562 20.0007 18.1562Z" fill="white"/>
<path fill-rule="evenodd" clip-rule="evenodd" d="M69 5C60.1635 5 53 12.1635 53 21C53 29.8365 60.1635 37 69 37C77.8365 37 85 29.8365 85 21C85 12.1635 77.8365 5 69 5ZM70.6677 21.7028V30.4077H67.0661V21.7031H65.2667V18.7034H67.0661V16.9024C67.0661 14.4552 68.0821 13 70.9688 13H73.3721V16.0001H71.8699C70.7461 16.0001 70.6718 16.4193 70.6718 17.2017L70.6677 18.7031H73.3891L73.0706 21.7028H70.6677Z" fill="white"/>
<path fill-rule="evenodd" clip-rule="evenodd" d="M118 5C109.163 5 102 12.1635 102 21C102 29.8365 109.163 37 118 37C126.837 37 134 29.8365 134 21C134 12.1635 126.837 5 118 5ZM124.668 15.4995C125.402 15.7011 125.98 16.2948 126.177 17.0488C126.533 18.4153 126.533 21.2667 126.533 21.2667C126.533 21.2667 126.533 24.1179 126.177 25.4845C125.98 26.2385 125.402 26.8323 124.668 27.0339C123.337 27.4 118 27.4 118 27.4C118 27.4 112.663 27.4 111.332 27.0339C110.598 26.8323 110.019 26.2385 109.823 25.4845C109.467 24.1179 109.467 21.2667 109.467 21.2667C109.467 21.2667 109.467 18.4153 109.823 17.0488C110.019 16.2948 110.598 15.7011 111.332 15.4995C112.663 15.1333 118 15.1333 118 15.1333C118 15.1333 123.337 15.1333 124.668 15.4995Z" fill="white"/>
<path d="M116.4 24.2005V18.8672L120.667 21.5339L116.4 24.2005Z" fill="white"/>
<path fill-rule="evenodd" clip-rule="evenodd" d="M167 5C158.163 5 151 12.1635 151 21C151 29.8365 158.163 37 167 37C175.837 37 183 29.8365 183 21C183 12.1635 175.837 5 167 5ZM166.554 18.5587L166.521 18.005C166.42 16.5701 167.304 15.2594 168.703 14.751C169.218 14.5702 170.091 14.5476 170.662 14.7058C170.886 14.7736 171.311 14.9995 171.613 15.2029L172.161 15.5758L172.766 15.3837C173.102 15.282 173.549 15.1125 173.751 14.9995C173.941 14.8979 174.109 14.8413 174.109 14.8753C174.109 15.0673 173.695 15.7227 173.348 16.0842C172.878 16.5927 173.012 16.6379 173.963 16.2989C174.534 16.1068 174.545 16.1068 174.433 16.3215C174.366 16.4345 174.019 16.8299 173.65 17.1915C173.023 17.8129 172.99 17.8807 172.99 18.4005C172.99 19.2027 172.609 20.8749 172.229 21.7901C171.523 23.5075 170.013 25.2813 168.502 26.1739C166.375 27.4281 163.544 27.7445 161.16 27.0101C160.365 26.7615 159 26.1287 159 26.0158C159 25.9819 159.414 25.9367 159.918 25.9254C160.97 25.9028 162.022 25.609 162.917 25.0893L163.521 24.7277L162.828 24.4905C161.843 24.1515 160.959 23.3719 160.735 22.6375C160.668 22.4002 160.69 22.3889 161.317 22.3889L161.966 22.3776L161.417 22.1177C160.768 21.7901 160.175 21.2364 159.884 20.6715C159.671 20.2647 159.403 19.2365 159.481 19.1575C159.504 19.1236 159.739 19.1913 160.007 19.2817C160.779 19.5642 160.88 19.4964 160.433 19.0219C159.593 18.1632 159.336 16.8864 159.739 15.6775L159.929 15.1351L160.668 15.8695C162.178 17.3497 163.958 18.231 165.995 18.4909L166.554 18.5587Z" fill="white"/>
<path fill-rule="evenodd" clip-rule="evenodd" d="M200 21C200 29.8365 207.163 37 216 37C224.837 37 232 29.8365 232 21C232 12.1635 224.837 5 216 5C207.163 5 200 12.1635 200 21ZM213.067 28.3333L213.339 24.2549L213.339 24.2547L220.758 17.5593C221.084 17.2703 220.687 17.1294 220.255 17.3915L211.098 23.1682L207.143 21.9338C206.289 21.6723 206.283 21.0853 207.335 20.6634L222.747 14.7206C223.451 14.401 224.13 14.8897 223.861 15.967L221.237 28.3354C221.054 29.2143 220.522 29.4245 219.787 29.0185L215.788 26.0646L213.867 27.9333C213.861 27.9392 213.855 27.9451 213.849 27.9509C213.634 28.1602 213.456 28.3333 213.067 28.3333Z" fill="white"/>
<path fill-rule="evenodd" clip-rule="evenodd" d="M249 21C249 29.8365 256.163 37 265 37C273.837 37 281 29.8365 281 21C281 12.1635 273.837 5 265 5C256.163 5 249 12.1635 249 21ZM275.041 20.3877C275.039 25.6322 270.773 29.8995 265.527 29.9017H265.523C263.931 29.9011 262.367 29.5016 260.977 28.7437L255.933 30.0667L257.283 25.1365C256.45 23.6937 256.012 22.057 256.013 20.3801C256.015 15.1345 260.283 10.8667 265.527 10.8667C268.072 10.8678 270.461 11.8586 272.257 13.6569C274.054 15.4552 275.042 17.8455 275.041 20.3877Z" fill="white"/>
<path fill-rule="evenodd" clip-rule="evenodd" d="M258.217 27.8055L261.21 27.0203L261.499 27.1917C262.713 27.9122 264.105 28.2934 265.524 28.294H265.527C269.886 28.294 273.433 24.7465 273.435 20.3862C273.436 18.2732 272.614 16.2865 271.121 14.7917C269.628 13.297 267.642 12.4734 265.53 12.4727C261.168 12.4727 257.621 16.0198 257.619 20.3798C257.619 21.874 258.037 23.3291 258.828 24.5881L259.016 24.8873L258.217 27.8055ZM269.995 22.4351C270.16 22.5153 270.272 22.5693 270.32 22.6491C270.38 22.7483 270.38 23.2243 270.182 23.7797C269.983 24.3349 269.034 24.8417 268.577 24.9099C268.167 24.9712 267.649 24.9967 267.08 24.8157C266.734 24.7062 266.292 24.5599 265.724 24.315C263.496 23.3527 261.99 21.1927 261.705 20.7844C261.685 20.7558 261.671 20.7358 261.663 20.7255L261.661 20.7229C261.536 20.555 260.693 19.4303 260.693 18.2663C260.693 17.1713 261.231 16.5973 261.478 16.3331C261.495 16.315 261.511 16.2983 261.525 16.2831C261.743 16.0451 262 15.9856 262.159 15.9856C262.317 15.9856 262.476 15.9871 262.614 15.994C262.631 15.9949 262.649 15.9947 262.668 15.9947C262.806 15.9938 262.979 15.9928 263.149 16.4021C263.215 16.5596 263.311 16.7931 263.412 17.0393C263.616 17.5373 263.842 18.0876 263.882 18.1672C263.942 18.2862 263.981 18.425 263.902 18.5837C263.89 18.6075 263.879 18.63 263.868 18.6514C263.809 18.7729 263.765 18.8623 263.664 18.9803C263.624 19.0267 263.583 19.0767 263.542 19.1266C263.461 19.2262 263.379 19.3258 263.308 19.3967C263.189 19.5153 263.065 19.6439 263.203 19.8819C263.342 20.1199 263.819 20.8983 264.526 21.5287C265.286 22.2063 265.946 22.4927 266.28 22.6379C266.346 22.6663 266.399 22.6892 266.438 22.7087C266.675 22.8277 266.814 22.8078 266.953 22.6491C267.091 22.4905 267.547 21.955 267.705 21.717C267.864 21.4791 268.022 21.5187 268.24 21.5981C268.458 21.6775 269.627 22.2525 269.865 22.3715C269.911 22.3947 269.954 22.4157 269.995 22.4351Z" fill="white"/>
<path fill-rule="evenodd" clip-rule="evenodd" d="M298 21C298 12.1635 305.163 5 314 5C322.837 5 330 12.1635 330 21C330 29.8365 322.837 37 314 37C305.163 37 298 29.8365 298 21ZM311.072 20.5429V22.28H313.955C313.839 23.0255 313.084 24.4659 311.072 24.4659C309.336 24.4659 307.92 23.0327 307.92 21.2667C307.92 19.5006 309.336 18.0674 311.072 18.0674C312.06 18.0674 312.721 18.4873 313.098 18.8491L314.478 17.5246C313.592 16.6994 312.445 16.2 311.072 16.2C308.262 16.2 305.988 18.4655 305.988 21.2667C305.988 24.0678 308.262 26.3333 311.072 26.3333C314.006 26.3333 315.952 24.2777 315.952 21.3825C315.952 21.0495 315.916 20.7962 315.872 20.5429H311.072ZM320.513 20.5429H321.965V21.9905H320.513V23.4381H319.06V21.9905H317.608V20.5429H319.06V19.0953H320.513V20.5429Z" fill="white"/>
</svg>
