<svg width="62" height="62" viewBox="0 0 62 62" fill="none" xmlns="http://www.w3.org/2000/svg">
<path d="M57.6263 4.37115C55.5175 2.2624 52.8444 0.925841 49.8978 0.505841C45.6081 -0.102284 41.3775 1.30865 38.3172 4.37115C37.4619 5.22647 37.4619 6.61115 38.3172 7.46647C38.3631 7.5124 38.4222 7.52772 38.4703 7.56709C38.5097 7.61303 38.525 7.67209 38.5709 7.71803L44.8797 14.0268L12.2947 46.6118L7.27875 41.5958L34.9222 13.9524C35.7775 13.0971 35.7775 11.7146 34.9222 10.8593C34.0669 10.004 32.6844 10.004 31.8291 10.8593L2.64344 40.0449C2.64125 40.0471 2.63906 40.0471 2.63687 40.0493L1.01375 41.6724C0.808125 41.878 0.648438 42.123 0.539063 42.3877C0.431875 42.6546 0.375 42.9368 0.375 43.219V59.4349C0.375 60.6446 1.355 61.6224 2.5625 61.6224H18.7806C19.3603 61.6224 19.9181 61.3927 20.3272 60.9815L57.6263 23.6824C62.9484 18.358 62.9484 9.69553 57.6263 4.37115ZM49.2831 4.83928C51.2825 5.12365 53.0981 6.03147 54.5309 7.46428C57.6131 10.5487 58.0441 15.2671 55.8741 18.8371L49.5172 12.478L43.1384 6.09928C44.9562 4.98584 47.1066 4.53084 49.2831 4.83928ZM4.75 57.2474V45.2555L10.7437 51.2493C10.7459 51.2515 10.7459 51.2537 10.7459 51.2537L10.7503 51.2558L16.7419 57.2474H4.75ZM15.3878 49.7049L47.9706 17.1199L52.9866 22.1358L20.4016 54.7208L15.3878 49.7049Z" fill="white"/>
</svg>
