<svg width="66" height="70" viewBox="0 0 66 70" fill="none" xmlns="http://www.w3.org/2000/svg">
<path d="M55.0623 69.9992H22.2498C21.6696 69.9992 21.1132 69.7687 20.703 69.3585C20.2927 68.9482 20.0623 68.3918 20.0623 67.8117V61.2492H15.6873C13.9468 61.2492 12.2776 60.5578 11.0469 59.3271C9.81618 58.0963 9.12478 56.4272 9.12478 54.6867V47.2885L1.58447 43.5304C1.30673 43.3918 1.06169 43.1956 0.865617 42.9549C0.669547 42.7143 0.526942 42.4346 0.447281 42.1346C0.367619 41.8346 0.352725 41.521 0.403588 41.2148C0.45445 40.9086 0.569905 40.6167 0.742279 40.3585L9.12478 27.7607C9.26116 21.8 11.2683 16.033 14.8624 11.2757C18.4564 6.51834 23.4553 3.01152 29.1519 1.25134C34.8485 -0.508835 40.9543 -0.433263 46.6056 1.46737C52.2568 3.368 57.1674 6.99747 60.6426 11.8423C60.8109 12.0751 60.9318 12.3388 60.9982 12.6184C61.0646 12.8979 61.0753 13.1878 61.0297 13.4714C60.9841 13.7551 60.8831 14.027 60.7324 14.2716C60.5817 14.5162 60.3843 14.7288 60.1515 14.8971C59.9187 15.0655 59.655 15.1863 59.3754 15.2527C59.0959 15.3192 58.806 15.3299 58.5224 15.2843C58.2387 15.2387 57.9668 15.1376 57.7222 14.9869C57.4775 14.8363 57.265 14.6389 57.0967 14.406C54.1248 10.2742 49.9192 7.19106 45.0847 5.59993C40.2502 4.0088 35.0356 3.99161 30.1907 5.55084C25.3457 7.11006 21.12 10.1654 18.1209 14.2776C15.1219 18.3898 13.5039 23.347 13.4998 28.4367C13.4991 28.8687 13.3713 29.2909 13.1323 29.6507L5.75603 40.7129L12.2901 43.9789C12.6537 44.1606 12.9595 44.44 13.1732 44.7858C13.3869 45.1316 13.5 45.5302 13.4998 45.9367V54.6867C13.4998 55.2668 13.7302 55.8232 14.1405 56.2335C14.5507 56.6437 15.1071 56.8742 15.6873 56.8742H22.2498C22.8299 56.8742 23.3863 57.1046 23.7966 57.5149C24.2068 57.9251 24.4373 58.4815 24.4373 59.0617V65.6242H52.8748V61.1748C52.7844 54.0235 54.6326 46.9812 58.2232 40.796C60.8892 36.3369 62.0403 31.1346 61.5045 25.967C61.3889 24.771 61.179 23.5861 60.8767 22.4232C60.7458 21.8665 60.8381 21.2807 61.1339 20.7912C61.4296 20.3017 61.9054 19.9476 62.4591 19.8046C63.0128 19.6615 63.6005 19.7411 64.0963 20.0261C64.5921 20.3111 64.9566 20.779 65.1117 21.3295C65.4695 22.7132 65.7196 24.1225 65.8598 25.5448C66.4909 31.6445 65.1286 37.7844 61.977 43.0448C58.7931 48.5504 57.1596 54.8155 57.2498 61.1748V67.8117C57.2498 68.3918 57.0193 68.9482 56.6091 69.3585C56.1988 69.7687 55.6424 69.9992 55.0623 69.9992Z" fill="white"/>
<path d="M26.625 61.25H22.25C21.6698 61.25 21.1134 61.0195 20.7032 60.6093C20.293 60.1991 20.0625 59.6427 20.0625 59.0625C20.0625 58.4823 20.293 57.9259 20.7032 57.5157C21.1134 57.1055 21.6698 56.875 22.25 56.875H26.625C27.2052 56.875 27.7616 57.1055 28.1718 57.5157C28.582 57.9259 28.8125 58.4823 28.8125 59.0625C28.8125 59.6427 28.582 60.1991 28.1718 60.6093C27.7616 61.0195 27.2052 61.25 26.625 61.25Z" fill="white"/>
<path d="M39.9077 41.5625H35.2177C34.1426 41.5629 33.1078 41.1533 32.3241 40.4173C31.5405 39.6812 31.067 38.674 31.0002 37.6009C30.0395 38.0801 28.9321 38.1747 27.9041 37.8654C26.876 37.556 26.0048 36.866 25.468 35.9363L23.1252 31.8763C22.591 30.9451 22.4309 29.8456 22.6775 28.8008C22.9241 27.756 23.5589 26.8441 24.453 26.25C23.5589 25.656 22.9241 24.744 22.6775 23.6992C22.4309 22.6544 22.591 21.5549 23.1252 20.6238L25.4702 16.5638C26.0069 15.6345 26.8778 14.945 27.9054 14.6356C28.9329 14.3263 30.0397 14.4205 31.0002 14.8991C31.067 13.826 31.5405 12.8188 32.3241 12.0827C33.1078 11.3467 34.1426 10.9371 35.2177 10.9375H39.9077C40.9831 10.936 42.0186 11.3453 42.8024 12.0816C43.5863 12.8178 44.0594 13.8256 44.1252 14.8991C45.0864 14.4194 46.1945 14.3248 47.2231 14.6346C48.2517 14.9444 49.1232 15.6352 49.6596 16.5659L52.0002 20.6238C52.5344 21.5549 52.6945 22.6544 52.4479 23.6992C52.2013 24.744 51.5666 25.656 50.6724 26.25C51.5656 26.8443 52.1995 27.756 52.4457 28.8003C52.6918 29.8446 52.5318 30.9434 51.998 31.8741L49.6508 35.9363C49.1137 36.8662 48.242 37.5562 47.2136 37.8655C46.1852 38.1749 45.0775 38.0802 44.1165 37.6009C44.0508 38.6729 43.5788 39.6794 42.7969 40.4155C42.0149 41.1515 40.9816 41.5617 39.9077 41.5625ZM35.3752 37.1875H39.7502C39.7769 36.4742 39.984 35.7794 40.3523 35.1679C40.7205 34.5565 41.2379 34.0484 41.8559 33.6913C42.4739 33.3342 43.1724 33.1398 43.8861 33.1261C44.5997 33.1124 45.3052 33.28 45.9365 33.6131L48.124 29.8222C47.5192 29.4426 47.0208 28.9158 46.6753 28.291C46.3298 27.6662 46.1485 26.964 46.1485 26.25C46.1485 25.536 46.3298 24.8338 46.6753 24.209C47.0208 23.5842 47.5192 23.0574 48.124 22.6778L45.9365 18.8869C45.3052 19.22 44.5997 19.3876 43.8861 19.3739C43.1724 19.3602 42.4739 19.1658 41.8559 18.8087C41.2379 18.4516 40.7205 17.9435 40.3523 17.3321C39.984 16.7207 39.7769 16.0258 39.7502 15.3125H35.3752C35.3482 16.0256 35.1408 16.7202 34.7724 17.3313C34.404 17.9425 33.8866 18.4502 33.2686 18.8071C32.6507 19.1639 31.9523 19.3582 31.2388 19.3718C30.5253 19.3854 29.8201 19.2178 29.189 18.8847L27.0015 22.6778C27.6062 23.0574 28.1046 23.5842 28.4502 24.209C28.7957 24.8338 28.9769 25.536 28.9769 26.25C28.9769 26.964 28.7957 27.6662 28.4502 28.291C28.1046 28.9158 27.6062 29.4426 27.0015 29.8222L29.189 33.6153C29.8201 33.2822 30.5253 33.1146 31.2388 33.1282C31.9523 33.1418 32.6507 33.3361 33.2686 33.6929C33.8866 34.0498 34.404 34.5575 34.7724 35.1687C35.1408 35.7798 35.3482 36.4744 35.3752 37.1875Z" fill="white"/>
<path d="M37.5625 30.625C36.6972 30.625 35.8513 30.3684 35.1319 29.8877C34.4124 29.407 33.8517 28.7237 33.5205 27.9242C33.1894 27.1248 33.1028 26.2451 33.2716 25.3965C33.4404 24.5478 33.8571 23.7683 34.4689 23.1564C35.0808 22.5446 35.8603 22.1279 36.709 21.9591C37.5576 21.7903 38.4373 21.8769 39.2367 22.208C40.0362 22.5392 40.7194 23.0999 41.2002 23.8194C41.6809 24.5388 41.9375 25.3847 41.9375 26.25C41.9375 27.4103 41.4766 28.5231 40.6561 29.3436C39.8356 30.1641 38.7228 30.625 37.5625 30.625Z" fill="white"/>
</svg>
