<svg width="31" height="31" viewBox="0 0 31 31" fill="none" xmlns="http://www.w3.org/2000/svg">
<path d="M20.6045 0.917969H15.1357C14.5317 0.917969 14.042 1.40766 14.042 2.01172V6.85468C9.0949 7.56231 5.29199 11.8169 5.29199 16.9596H4.19824C2.38606 16.9596 0.916992 18.4288 0.916992 20.2409V28.9909C0.916992 29.5949 1.40669 30.0846 2.01074 30.0846H12.5837C12.7851 30.0846 12.9482 29.9215 12.9482 29.7201V25.3451C12.9482 24.9424 13.2748 24.6159 13.6774 24.6159H17.3232C17.7259 24.6159 18.0524 24.9424 18.0524 25.3451V29.7201C18.0524 29.9215 18.2156 30.0846 18.417 30.0846H28.9899C29.594 30.0846 30.0837 29.5949 30.0837 28.9909V20.2409C30.0837 18.4288 28.6145 16.9596 26.8024 16.9596H25.7087C25.7087 11.5669 21.527 7.15083 16.2295 6.77694V5.29297H20.6045C21.0071 5.29297 21.3337 4.96651 21.3337 4.5638V1.64714C21.3337 1.24443 21.0071 0.917969 20.6045 0.917969ZM20.6045 15.1367V18.0534C20.6045 18.6574 20.1148 19.1471 19.5107 19.1471C18.9067 19.1471 18.417 18.6574 18.417 18.0534V15.1367C18.417 14.5327 18.9067 14.043 19.5107 14.043C20.1148 14.043 20.6045 14.5327 20.6045 15.1367ZM15.1357 14.043C15.7398 14.043 16.2295 14.5327 16.2295 15.1367V18.0534C16.2295 18.6574 15.7398 19.1471 15.1357 19.1471C14.5317 19.1471 14.042 18.6574 14.042 18.0534V15.1367C14.042 14.5327 14.5317 14.043 15.1357 14.043ZM11.8545 15.1367V18.0534C11.8545 18.6574 11.3648 19.1471 10.7607 19.1471C10.1567 19.1471 9.66699 18.6574 9.66699 18.0534V15.1367C9.66699 14.5327 10.1567 14.043 10.7607 14.043C11.3648 14.043 11.8545 14.5327 11.8545 15.1367ZM6.38574 20.6055C6.9898 20.6055 7.47949 21.0952 7.47949 21.6992V25.3451C7.47949 25.9491 6.9898 26.4388 6.38574 26.4388C5.78169 26.4388 5.29199 25.9491 5.29199 25.3451V21.6992C5.29199 21.0952 5.78169 20.6055 6.38574 20.6055ZM25.7087 21.6992V25.3451C25.7087 25.9491 25.219 26.4388 24.6149 26.4388C24.0109 26.4388 23.5212 25.9491 23.5212 25.3451V21.6992C23.5212 21.0952 24.0109 20.6055 24.6149 20.6055C25.219 20.6055 25.7087 21.0952 25.7087 21.6992Z" fill="#CC9DFF"/>
</svg>
