<svg width="27" height="35" viewBox="0 0 27 35" fill="none" xmlns="http://www.w3.org/2000/svg">
<path d="M8.43754 4.92188C8.43754 2.20356 10.7041 0 13.5 0C16.296 0 18.5625 2.20356 18.5625 4.92188C18.5625 7.64012 16.296 9.84375 13.5 9.84375C10.7041 9.84375 8.43754 7.64012 8.43754 4.92188ZM26.341 5.01573C25.4624 4.16145 24.0377 4.16145 23.1591 5.01573L17.0681 10.9375H9.93196L3.841 5.01573C2.96238 4.16145 1.53771 4.16145 0.659082 5.01573C-0.219613 5.87002 -0.219613 7.25505 0.659082 8.10934L7.31254 14.5779V32.8125C7.31254 34.0206 8.31991 35 9.56254 35H10.6875C11.9302 35 12.9375 34.0206 12.9375 32.8125V25.1562H14.0625V32.8125C14.0625 34.0206 15.0699 35 16.3125 35H17.4375C18.6802 35 19.6875 34.0206 19.6875 32.8125V14.5779L26.341 8.10927C27.2197 7.25498 27.2197 5.87002 26.341 5.01573Z" fill="#B4E4FF"/>
</svg>
