<svg width="35" height="35" viewBox="0 0 35 35" fill="none" xmlns="http://www.w3.org/2000/svg">
<path d="M8.74994 17.5001C7.01936 17.5001 5.32763 18.0132 3.8887 18.9747C2.44977 19.9362 1.32826 21.3027 0.665997 22.9016C0.00373017 24.5004 -0.169549 26.2598 0.168072 27.9571C0.505692 29.6544 1.33905 31.2135 2.56276 32.4372C3.78647 33.6609 5.34557 34.4943 7.0429 34.8319C8.74024 35.1695 10.4996 34.9963 12.0984 34.334C13.6973 33.6717 15.0638 32.5502 16.0253 31.1113C16.9868 29.6724 17.4999 27.9806 17.4999 26.25C17.4999 23.9294 16.5781 21.7038 14.9371 20.0629C13.2962 18.4219 11.0706 17.5001 8.74994 17.5001ZM34.6581 13.7499L27.3485 1.25036C27.1232 0.869451 26.8025 0.553817 26.4181 0.334563C26.0337 0.115309 25.5987 0 25.1562 0C24.7136 0 24.2787 0.115309 23.8943 0.334563C23.5099 0.553817 23.1892 0.869451 22.9639 1.25036L15.6542 13.7499C14.6808 15.4165 15.899 17.5001 17.8479 17.5001H32.4645C34.4134 17.5001 35.6316 15.4165 34.6581 13.7499ZM32.8124 19.6876H21.8749C21.2948 19.6876 20.7384 19.918 20.3281 20.3283C19.9179 20.7385 19.6874 21.2949 19.6874 21.875V32.8125C19.6874 33.3927 19.9179 33.9491 20.3281 34.3593C20.7384 34.7696 21.2948 35 21.8749 35H32.8124C33.3926 35 33.949 34.7696 34.3592 34.3593C34.7695 33.9491 34.9999 33.3927 34.9999 32.8125V21.875C34.9999 21.2949 34.7695 20.7385 34.3592 20.3283C33.949 19.918 33.3926 19.6876 32.8124 19.6876Z" fill="#F5FFC0"/>
</svg>
