<svg width="35" height="35" viewBox="0 0 35 35" fill="none" xmlns="http://www.w3.org/2000/svg">
<path d="M24.9531 21.9177L17.5 28.4392L10.0469 21.9177C4.46094 22.1297 0 26.1287 0 31.0642V31.7205C0 33.532 1.67969 35.0017 3.75 35.0017H31.25C33.3203 35.0017 35 33.532 35 31.7205V31.0642C35 26.1287 30.5391 22.1297 24.9531 21.9177ZM1.0625 5.45679L1.5625 5.55933V9.55152C1.01562 9.83863 0.625 10.3377 0.625 10.9392C0.625 11.5134 0.984375 11.992 1.49219 12.2859L0.273438 16.5447C0.140625 17.0164 0.4375 17.5017 0.867188 17.5017H4.13281C4.5625 17.5017 4.85938 17.0164 4.72656 16.5447L3.50781 12.2859C4.01562 11.992 4.375 11.5134 4.375 10.9392C4.375 10.3377 3.98438 9.83863 3.4375 9.55152V5.95581L8.59375 7.04273C7.92188 8.21851 7.5 9.53101 7.5 10.9392C7.5 15.7722 11.9766 19.6892 17.5 19.6892C23.0234 19.6892 27.5 15.7722 27.5 10.9392C27.5 9.53101 27.0859 8.21851 26.4062 7.04273L33.9297 5.45679C35.3516 5.15601 35.3516 3.60425 33.9297 3.30347L19.0547 0.158936C18.0391 -0.0529786 16.9688 -0.0529786 15.9531 0.158936L1.0625 3.29663C-0.351562 3.59741 -0.351562 5.15601 1.0625 5.45679Z" fill="#ACFFD7"/>
</svg>
